<mxfile host="app.diagrams.net" modified="2023-04-21T23:31:37.676Z" agent="Mozilla/5.0 (Windows NT 10.0; Win64; x64; rv:109.0) Gecko/20100101 Firefox/112.0" etag="qrTmVD_t0MaR9UP0p8UU" version="21.1.1">
  <diagram name="Страница 1" id="TdYJ3p2JYDrJfeF9kp8x">
    <mxGraphModel dx="1902" dy="1746" grid="1" gridSize="10" guides="1" tooltips="1" connect="1" arrows="1" fold="1" page="1" pageScale="1" pageWidth="1169" pageHeight="1654" math="0" shadow="0">
      <root>
        <mxCell id="0" />
        <mxCell id="1" parent="0" />
        <mxCell id="AwruaKweozF5E1ku_dQY-2" style="edgeStyle=orthogonalEdgeStyle;rounded=0;orthogonalLoop=1;jettySize=auto;html=1;" edge="1" parent="1" source="CEj9520sCSwRq2cYFY77-1" target="AwruaKweozF5E1ku_dQY-1">
          <mxGeometry relative="1" as="geometry" />
        </mxCell>
        <mxCell id="CEj9520sCSwRq2cYFY77-1" value="Начало" style="strokeWidth=2;html=1;shape=mxgraph.flowchart.terminator;whiteSpace=wrap;" parent="1" vertex="1">
          <mxGeometry x="280" y="42" width="200" height="80" as="geometry" />
        </mxCell>
        <mxCell id="AwruaKweozF5E1ku_dQY-1" value="var matSmg = new Matrix(7, 7);" style="rounded=0;whiteSpace=wrap;html=1;" vertex="1" parent="1">
          <mxGeometry x="280" y="160" width="199" height="80" as="geometry" />
        </mxCell>
        <mxCell id="AwruaKweozF5E1ku_dQY-5" style="edgeStyle=orthogonalEdgeStyle;rounded=0;orthogonalLoop=1;jettySize=auto;html=1;" edge="1" parent="1" source="AwruaKweozF5E1ku_dQY-3" target="AwruaKweozF5E1ku_dQY-4">
          <mxGeometry relative="1" as="geometry" />
        </mxCell>
        <mxCell id="AwruaKweozF5E1ku_dQY-3" value="var x = 0; x &amp;lt; 14; x++" style="shape=hexagon;perimeter=hexagonPerimeter2;whiteSpace=wrap;html=1;fixedSize=1;" vertex="1" parent="1">
          <mxGeometry x="280" y="280" width="199" height="80" as="geometry" />
        </mxCell>
        <mxCell id="AwruaKweozF5E1ku_dQY-7" style="edgeStyle=orthogonalEdgeStyle;rounded=0;orthogonalLoop=1;jettySize=auto;html=1;" edge="1" parent="1" source="AwruaKweozF5E1ku_dQY-4" target="AwruaKweozF5E1ku_dQY-6">
          <mxGeometry relative="1" as="geometry" />
        </mxCell>
        <mxCell id="AwruaKweozF5E1ku_dQY-4" value="&lt;div&gt;int? value1 = null;&lt;/div&gt;&lt;div&gt;int? value2 = null;&lt;/div&gt;" style="rounded=0;whiteSpace=wrap;html=1;" vertex="1" parent="1">
          <mxGeometry x="280" y="400" width="199" height="80" as="geometry" />
        </mxCell>
        <mxCell id="AwruaKweozF5E1ku_dQY-9" style="edgeStyle=orthogonalEdgeStyle;rounded=0;orthogonalLoop=1;jettySize=auto;html=1;entryX=0.5;entryY=0;entryDx=0;entryDy=0;" edge="1" parent="1" source="AwruaKweozF5E1ku_dQY-6" target="AwruaKweozF5E1ku_dQY-8">
          <mxGeometry relative="1" as="geometry">
            <Array as="points">
              <mxPoint x="380" y="640" />
            </Array>
          </mxGeometry>
        </mxCell>
        <mxCell id="AwruaKweozF5E1ku_dQY-61" style="edgeStyle=orthogonalEdgeStyle;rounded=0;orthogonalLoop=1;jettySize=auto;html=1;entryX=0.5;entryY=0;entryDx=0;entryDy=0;" edge="1" parent="1" source="AwruaKweozF5E1ku_dQY-6" target="AwruaKweozF5E1ku_dQY-56">
          <mxGeometry relative="1" as="geometry">
            <Array as="points">
              <mxPoint x="920" y="560" />
              <mxPoint x="920" y="2040" />
              <mxPoint x="390" y="2040" />
            </Array>
          </mxGeometry>
        </mxCell>
        <mxCell id="AwruaKweozF5E1ku_dQY-6" value="var y = 0; y &amp;lt; 7; y++" style="shape=hexagon;perimeter=hexagonPerimeter2;whiteSpace=wrap;html=1;fixedSize=1;" vertex="1" parent="1">
          <mxGeometry x="280" y="520" width="199" height="80" as="geometry" />
        </mxCell>
        <mxCell id="AwruaKweozF5E1ku_dQY-11" style="edgeStyle=orthogonalEdgeStyle;rounded=0;orthogonalLoop=1;jettySize=auto;html=1;" edge="1" parent="1" source="AwruaKweozF5E1ku_dQY-8" target="AwruaKweozF5E1ku_dQY-10">
          <mxGeometry relative="1" as="geometry">
            <Array as="points">
              <mxPoint x="511" y="680" />
            </Array>
          </mxGeometry>
        </mxCell>
        <mxCell id="AwruaKweozF5E1ku_dQY-51" style="edgeStyle=orthogonalEdgeStyle;rounded=0;orthogonalLoop=1;jettySize=auto;html=1;" edge="1" parent="1" source="AwruaKweozF5E1ku_dQY-8">
          <mxGeometry relative="1" as="geometry">
            <mxPoint x="380.5" y="1960" as="targetPoint" />
            <Array as="points">
              <mxPoint x="160" y="680" />
              <mxPoint x="160" y="1960" />
            </Array>
          </mxGeometry>
        </mxCell>
        <mxCell id="AwruaKweozF5E1ku_dQY-8" value="a[x,y] =1 || a[x,y] = -1" style="rhombus;whiteSpace=wrap;html=1;" vertex="1" parent="1">
          <mxGeometry x="281" y="640" width="199" height="80" as="geometry" />
        </mxCell>
        <mxCell id="AwruaKweozF5E1ku_dQY-13" style="edgeStyle=orthogonalEdgeStyle;rounded=0;orthogonalLoop=1;jettySize=auto;html=1;entryX=0.5;entryY=0;entryDx=0;entryDy=0;" edge="1" parent="1" source="AwruaKweozF5E1ku_dQY-10" target="AwruaKweozF5E1ku_dQY-12">
          <mxGeometry relative="1" as="geometry">
            <Array as="points">
              <mxPoint x="665" y="800" />
            </Array>
          </mxGeometry>
        </mxCell>
        <mxCell id="AwruaKweozF5E1ku_dQY-16" style="edgeStyle=orthogonalEdgeStyle;rounded=0;orthogonalLoop=1;jettySize=auto;html=1;" edge="1" parent="1" source="AwruaKweozF5E1ku_dQY-10" target="AwruaKweozF5E1ku_dQY-15">
          <mxGeometry relative="1" as="geometry">
            <Array as="points">
              <mxPoint x="340" y="800" />
            </Array>
          </mxGeometry>
        </mxCell>
        <mxCell id="AwruaKweozF5E1ku_dQY-10" value="value1 == null" style="rhombus;whiteSpace=wrap;html=1;" vertex="1" parent="1">
          <mxGeometry x="411" y="760" width="199" height="80" as="geometry" />
        </mxCell>
        <mxCell id="AwruaKweozF5E1ku_dQY-24" style="edgeStyle=orthogonalEdgeStyle;rounded=0;orthogonalLoop=1;jettySize=auto;html=1;" edge="1" parent="1" source="AwruaKweozF5E1ku_dQY-12">
          <mxGeometry relative="1" as="geometry">
            <mxPoint x="510" y="1080" as="targetPoint" />
            <Array as="points">
              <mxPoint x="665" y="1080" />
            </Array>
          </mxGeometry>
        </mxCell>
        <mxCell id="AwruaKweozF5E1ku_dQY-12" value="value1 = y;" style="rounded=0;whiteSpace=wrap;html=1;" vertex="1" parent="1">
          <mxGeometry x="570" y="840" width="190" height="80" as="geometry" />
        </mxCell>
        <mxCell id="AwruaKweozF5E1ku_dQY-14" value="Yes" style="text;html=1;align=center;verticalAlign=middle;resizable=0;points=[];autosize=1;strokeColor=none;fillColor=none;" vertex="1" parent="1">
          <mxGeometry x="620" y="775" width="40" height="30" as="geometry" />
        </mxCell>
        <mxCell id="AwruaKweozF5E1ku_dQY-18" style="edgeStyle=orthogonalEdgeStyle;rounded=0;orthogonalLoop=1;jettySize=auto;html=1;entryX=0.5;entryY=0;entryDx=0;entryDy=0;" edge="1" parent="1" source="AwruaKweozF5E1ku_dQY-15" target="AwruaKweozF5E1ku_dQY-17">
          <mxGeometry relative="1" as="geometry">
            <Array as="points">
              <mxPoint x="465" y="880" />
            </Array>
          </mxGeometry>
        </mxCell>
        <mxCell id="AwruaKweozF5E1ku_dQY-15" value="value2 == null" style="rhombus;whiteSpace=wrap;html=1;" vertex="1" parent="1">
          <mxGeometry x="240" y="840" width="199" height="80" as="geometry" />
        </mxCell>
        <mxCell id="AwruaKweozF5E1ku_dQY-22" style="edgeStyle=orthogonalEdgeStyle;rounded=0;orthogonalLoop=1;jettySize=auto;html=1;" edge="1" parent="1" source="AwruaKweozF5E1ku_dQY-17">
          <mxGeometry relative="1" as="geometry">
            <mxPoint x="330" y="1040" as="targetPoint" />
            <Array as="points">
              <mxPoint x="465" y="1040" />
            </Array>
          </mxGeometry>
        </mxCell>
        <mxCell id="AwruaKweozF5E1ku_dQY-17" value="value2 = y;" style="rounded=0;whiteSpace=wrap;html=1;" vertex="1" parent="1">
          <mxGeometry x="370" y="920" width="190" height="80" as="geometry" />
        </mxCell>
        <mxCell id="AwruaKweozF5E1ku_dQY-19" value="No" style="text;html=1;align=center;verticalAlign=middle;resizable=0;points=[];autosize=1;strokeColor=none;fillColor=none;" vertex="1" parent="1">
          <mxGeometry x="340" y="775" width="40" height="30" as="geometry" />
        </mxCell>
        <mxCell id="AwruaKweozF5E1ku_dQY-27" style="edgeStyle=orthogonalEdgeStyle;rounded=0;orthogonalLoop=1;jettySize=auto;html=1;" edge="1" parent="1" source="AwruaKweozF5E1ku_dQY-20" target="AwruaKweozF5E1ku_dQY-26">
          <mxGeometry relative="1" as="geometry">
            <Array as="points">
              <mxPoint x="630" y="1160" />
            </Array>
          </mxGeometry>
        </mxCell>
        <mxCell id="AwruaKweozF5E1ku_dQY-20" value="value1 != null &amp;amp;&amp;amp; value2 != null" style="rhombus;whiteSpace=wrap;html=1;" vertex="1" parent="1">
          <mxGeometry x="410" y="1120" width="199" height="80" as="geometry" />
        </mxCell>
        <mxCell id="AwruaKweozF5E1ku_dQY-21" value="" style="endArrow=classic;html=1;rounded=0;exitX=0;exitY=0.5;exitDx=0;exitDy=0;" edge="1" parent="1" source="AwruaKweozF5E1ku_dQY-15">
          <mxGeometry width="50" height="50" relative="1" as="geometry">
            <mxPoint x="590" y="970" as="sourcePoint" />
            <mxPoint x="330" y="1040" as="targetPoint" />
            <Array as="points">
              <mxPoint x="210" y="880" />
              <mxPoint x="210" y="1040" />
            </Array>
          </mxGeometry>
        </mxCell>
        <mxCell id="AwruaKweozF5E1ku_dQY-23" value="" style="endArrow=classic;html=1;rounded=0;" edge="1" parent="1">
          <mxGeometry width="50" height="50" relative="1" as="geometry">
            <mxPoint x="330" y="1040" as="sourcePoint" />
            <mxPoint x="510" y="1080" as="targetPoint" />
            <Array as="points">
              <mxPoint x="330" y="1080" />
            </Array>
          </mxGeometry>
        </mxCell>
        <mxCell id="AwruaKweozF5E1ku_dQY-25" value="" style="endArrow=classic;html=1;rounded=0;entryX=0.5;entryY=0;entryDx=0;entryDy=0;" edge="1" parent="1" target="AwruaKweozF5E1ku_dQY-20">
          <mxGeometry width="50" height="50" relative="1" as="geometry">
            <mxPoint x="510" y="1080" as="sourcePoint" />
            <mxPoint x="350" y="1060" as="targetPoint" />
            <Array as="points" />
          </mxGeometry>
        </mxCell>
        <mxCell id="AwruaKweozF5E1ku_dQY-29" style="edgeStyle=orthogonalEdgeStyle;rounded=0;orthogonalLoop=1;jettySize=auto;html=1;" edge="1" parent="1" source="AwruaKweozF5E1ku_dQY-26" target="AwruaKweozF5E1ku_dQY-28">
          <mxGeometry relative="1" as="geometry" />
        </mxCell>
        <mxCell id="AwruaKweozF5E1ku_dQY-26" value="matSmg.Set(value1.Value, value2.Value, 1);&lt;br&gt;&amp;nbsp;&amp;nbsp;&amp;nbsp;&amp;nbsp;&amp;nbsp;&amp;nbsp;&amp;nbsp;&amp;nbsp;&amp;nbsp;&amp;nbsp;&amp;nbsp;&amp;nbsp;&amp;nbsp;&amp;nbsp;&amp;nbsp;&amp;nbsp;&amp;nbsp;&amp;nbsp;&amp;nbsp;&amp;nbsp;&amp;nbsp;&amp;nbsp;&amp;nbsp; matSmg.Set(value2.Value, value1.Value, 1);" style="rounded=0;whiteSpace=wrap;html=1;" vertex="1" parent="1">
          <mxGeometry x="530" y="1200" width="199" height="80" as="geometry" />
        </mxCell>
        <mxCell id="AwruaKweozF5E1ku_dQY-31" style="edgeStyle=orthogonalEdgeStyle;rounded=0;orthogonalLoop=1;jettySize=auto;html=1;" edge="1" parent="1" source="AwruaKweozF5E1ku_dQY-28" target="AwruaKweozF5E1ku_dQY-30">
          <mxGeometry relative="1" as="geometry">
            <Array as="points">
              <mxPoint x="769" y="1360" />
            </Array>
          </mxGeometry>
        </mxCell>
        <mxCell id="AwruaKweozF5E1ku_dQY-36" style="edgeStyle=orthogonalEdgeStyle;rounded=0;orthogonalLoop=1;jettySize=auto;html=1;entryX=0.5;entryY=0;entryDx=0;entryDy=0;" edge="1" parent="1" source="AwruaKweozF5E1ku_dQY-28" target="AwruaKweozF5E1ku_dQY-33">
          <mxGeometry relative="1" as="geometry">
            <Array as="points">
              <mxPoint x="490" y="1360" />
              <mxPoint x="490" y="1540" />
              <mxPoint x="629" y="1540" />
            </Array>
          </mxGeometry>
        </mxCell>
        <mxCell id="AwruaKweozF5E1ku_dQY-28" value="a[x, value1.Value] = -1" style="rhombus;whiteSpace=wrap;html=1;" vertex="1" parent="1">
          <mxGeometry x="530" y="1320" width="199" height="80" as="geometry" />
        </mxCell>
        <mxCell id="AwruaKweozF5E1ku_dQY-37" style="edgeStyle=orthogonalEdgeStyle;rounded=0;orthogonalLoop=1;jettySize=auto;html=1;entryX=0.5;entryY=0;entryDx=0;entryDy=0;" edge="1" parent="1" source="AwruaKweozF5E1ku_dQY-30" target="AwruaKweozF5E1ku_dQY-33">
          <mxGeometry relative="1" as="geometry" />
        </mxCell>
        <mxCell id="AwruaKweozF5E1ku_dQY-30" value="matSmg.Set(value1.Value, value2.Value, 0);" style="rounded=0;whiteSpace=wrap;html=1;" vertex="1" parent="1">
          <mxGeometry x="670" y="1440" width="199" height="80" as="geometry" />
        </mxCell>
        <mxCell id="AwruaKweozF5E1ku_dQY-32" style="edgeStyle=orthogonalEdgeStyle;rounded=0;orthogonalLoop=1;jettySize=auto;html=1;" edge="1" parent="1" source="AwruaKweozF5E1ku_dQY-33" target="AwruaKweozF5E1ku_dQY-34">
          <mxGeometry relative="1" as="geometry">
            <Array as="points">
              <mxPoint x="770" y="1600" />
            </Array>
          </mxGeometry>
        </mxCell>
        <mxCell id="AwruaKweozF5E1ku_dQY-33" value="&lt;font style=&quot;font-size: 10px;&quot;&gt;matInc.Get(x, value1.Value) == -1&lt;/font&gt;" style="rhombus;whiteSpace=wrap;html=1;" vertex="1" parent="1">
          <mxGeometry x="530" y="1560" width="199" height="80" as="geometry" />
        </mxCell>
        <mxCell id="AwruaKweozF5E1ku_dQY-34" value="matSmg.Set(value2.Value, value1.Value, 0);" style="rounded=0;whiteSpace=wrap;html=1;" vertex="1" parent="1">
          <mxGeometry x="670" y="1680" width="199" height="80" as="geometry" />
        </mxCell>
        <mxCell id="AwruaKweozF5E1ku_dQY-38" value="Yes" style="text;html=1;align=center;verticalAlign=middle;resizable=0;points=[];autosize=1;strokeColor=none;fillColor=none;" vertex="1" parent="1">
          <mxGeometry x="730" y="1335" width="40" height="30" as="geometry" />
        </mxCell>
        <mxCell id="AwruaKweozF5E1ku_dQY-39" value="No" style="text;html=1;align=center;verticalAlign=middle;resizable=0;points=[];autosize=1;strokeColor=none;fillColor=none;" vertex="1" parent="1">
          <mxGeometry x="490" y="1335" width="40" height="30" as="geometry" />
        </mxCell>
        <mxCell id="AwruaKweozF5E1ku_dQY-40" value="break" style="rounded=0;whiteSpace=wrap;html=1;" vertex="1" parent="1">
          <mxGeometry x="531" y="1800" width="199" height="80" as="geometry" />
        </mxCell>
        <mxCell id="AwruaKweozF5E1ku_dQY-44" value="" style="endArrow=classic;html=1;rounded=0;entryX=0.5;entryY=0;entryDx=0;entryDy=0;exitX=0;exitY=0.5;exitDx=0;exitDy=0;" edge="1" parent="1" source="AwruaKweozF5E1ku_dQY-33" target="AwruaKweozF5E1ku_dQY-40">
          <mxGeometry width="50" height="50" relative="1" as="geometry">
            <mxPoint x="631" y="1780" as="sourcePoint" />
            <mxPoint x="770" y="1470" as="targetPoint" />
            <Array as="points">
              <mxPoint x="490" y="1600" />
              <mxPoint x="490" y="1780" />
              <mxPoint x="631" y="1780" />
            </Array>
          </mxGeometry>
        </mxCell>
        <mxCell id="AwruaKweozF5E1ku_dQY-45" value="" style="endArrow=none;html=1;rounded=0;exitX=0.5;exitY=1;exitDx=0;exitDy=0;" edge="1" parent="1" source="AwruaKweozF5E1ku_dQY-34">
          <mxGeometry width="50" height="50" relative="1" as="geometry">
            <mxPoint x="720" y="1520" as="sourcePoint" />
            <mxPoint x="630" y="1780" as="targetPoint" />
            <Array as="points">
              <mxPoint x="770" y="1780" />
            </Array>
          </mxGeometry>
        </mxCell>
        <mxCell id="AwruaKweozF5E1ku_dQY-46" value="Yes" style="text;html=1;align=center;verticalAlign=middle;resizable=0;points=[];autosize=1;strokeColor=none;fillColor=none;" vertex="1" parent="1">
          <mxGeometry x="600" y="1135" width="40" height="30" as="geometry" />
        </mxCell>
        <mxCell id="AwruaKweozF5E1ku_dQY-47" value="Yes" style="text;html=1;align=center;verticalAlign=middle;resizable=0;points=[];autosize=1;strokeColor=none;fillColor=none;" vertex="1" parent="1">
          <mxGeometry x="470" y="645" width="40" height="30" as="geometry" />
        </mxCell>
        <mxCell id="AwruaKweozF5E1ku_dQY-48" value="" style="endArrow=classic;html=1;rounded=0;exitX=0;exitY=0.5;exitDx=0;exitDy=0;" edge="1" parent="1" source="AwruaKweozF5E1ku_dQY-20">
          <mxGeometry width="50" height="50" relative="1" as="geometry">
            <mxPoint x="680" y="1330" as="sourcePoint" />
            <mxPoint x="510" y="1920" as="targetPoint" />
            <Array as="points">
              <mxPoint x="360" y="1160" />
              <mxPoint x="360" y="1920" />
            </Array>
          </mxGeometry>
        </mxCell>
        <mxCell id="AwruaKweozF5E1ku_dQY-49" value="" style="endArrow=classic;html=1;rounded=0;exitX=0.5;exitY=1;exitDx=0;exitDy=0;" edge="1" parent="1" source="AwruaKweozF5E1ku_dQY-40">
          <mxGeometry width="50" height="50" relative="1" as="geometry">
            <mxPoint x="610" y="1540" as="sourcePoint" />
            <mxPoint x="510" y="1920" as="targetPoint" />
            <Array as="points">
              <mxPoint x="631" y="1920" />
            </Array>
          </mxGeometry>
        </mxCell>
        <mxCell id="AwruaKweozF5E1ku_dQY-50" value="" style="endArrow=classic;html=1;rounded=0;" edge="1" parent="1">
          <mxGeometry width="50" height="50" relative="1" as="geometry">
            <mxPoint x="510" y="1920" as="sourcePoint" />
            <mxPoint x="380" y="1960" as="targetPoint" />
            <Array as="points">
              <mxPoint x="510" y="1960" />
            </Array>
          </mxGeometry>
        </mxCell>
        <mxCell id="AwruaKweozF5E1ku_dQY-52" value="No" style="text;html=1;align=center;verticalAlign=middle;resizable=0;points=[];autosize=1;strokeColor=none;fillColor=none;" vertex="1" parent="1">
          <mxGeometry x="170" y="645" width="40" height="30" as="geometry" />
        </mxCell>
        <mxCell id="AwruaKweozF5E1ku_dQY-53" value="" style="endArrow=classic;html=1;rounded=0;entryX=0;entryY=0.5;entryDx=0;entryDy=0;" edge="1" parent="1" target="AwruaKweozF5E1ku_dQY-6">
          <mxGeometry width="50" height="50" relative="1" as="geometry">
            <mxPoint x="380" y="1960" as="sourcePoint" />
            <mxPoint x="370" y="2030" as="targetPoint" />
            <Array as="points">
              <mxPoint x="380" y="2000" />
              <mxPoint x="120" y="2000" />
              <mxPoint x="120" y="560" />
            </Array>
          </mxGeometry>
        </mxCell>
        <mxCell id="AwruaKweozF5E1ku_dQY-54" style="edgeStyle=orthogonalEdgeStyle;rounded=0;orthogonalLoop=1;jettySize=auto;html=1;" edge="1" source="AwruaKweozF5E1ku_dQY-56" target="AwruaKweozF5E1ku_dQY-58" parent="1">
          <mxGeometry relative="1" as="geometry">
            <Array as="points">
              <mxPoint x="529" y="2120" />
            </Array>
          </mxGeometry>
        </mxCell>
        <mxCell id="AwruaKweozF5E1ku_dQY-55" style="edgeStyle=orthogonalEdgeStyle;rounded=0;orthogonalLoop=1;jettySize=auto;html=1;entryX=0.5;entryY=0;entryDx=0;entryDy=0;" edge="1" source="AwruaKweozF5E1ku_dQY-56" parent="1">
          <mxGeometry relative="1" as="geometry">
            <mxPoint x="390" y="2320" as="targetPoint" />
            <Array as="points">
              <mxPoint x="250" y="2120" />
              <mxPoint x="250" y="2300" />
              <mxPoint x="389" y="2300" />
            </Array>
          </mxGeometry>
        </mxCell>
        <mxCell id="AwruaKweozF5E1ku_dQY-56" value="value2 == null &amp;amp;&amp;amp; value1 != 0" style="rhombus;whiteSpace=wrap;html=1;" vertex="1" parent="1">
          <mxGeometry x="290" y="2080" width="199" height="80" as="geometry" />
        </mxCell>
        <mxCell id="AwruaKweozF5E1ku_dQY-57" style="edgeStyle=orthogonalEdgeStyle;rounded=0;orthogonalLoop=1;jettySize=auto;html=1;entryX=0.5;entryY=0;entryDx=0;entryDy=0;" edge="1" source="AwruaKweozF5E1ku_dQY-58" parent="1">
          <mxGeometry relative="1" as="geometry">
            <mxPoint x="390" y="2320" as="targetPoint" />
            <Array as="points">
              <mxPoint x="530" y="2300" />
              <mxPoint x="390" y="2300" />
            </Array>
          </mxGeometry>
        </mxCell>
        <mxCell id="AwruaKweozF5E1ku_dQY-58" value="matSmg.Set(value1.Value, value1.Value, 1);" style="rounded=0;whiteSpace=wrap;html=1;" vertex="1" parent="1">
          <mxGeometry x="430" y="2200" width="199" height="80" as="geometry" />
        </mxCell>
        <mxCell id="AwruaKweozF5E1ku_dQY-59" value="Yes" style="text;html=1;align=center;verticalAlign=middle;resizable=0;points=[];autosize=1;strokeColor=none;fillColor=none;" vertex="1" parent="1">
          <mxGeometry x="490" y="2095" width="40" height="30" as="geometry" />
        </mxCell>
        <mxCell id="AwruaKweozF5E1ku_dQY-60" value="No" style="text;html=1;align=center;verticalAlign=middle;resizable=0;points=[];autosize=1;strokeColor=none;fillColor=none;" vertex="1" parent="1">
          <mxGeometry x="250" y="2095" width="40" height="30" as="geometry" />
        </mxCell>
        <mxCell id="AwruaKweozF5E1ku_dQY-62" value="return matSmg" style="rounded=0;whiteSpace=wrap;html=1;" vertex="1" parent="1">
          <mxGeometry x="290" y="2320" width="199" height="80" as="geometry" />
        </mxCell>
      </root>
    </mxGraphModel>
  </diagram>
</mxfile>
